HIERARCHY
ROOT ui
{
	 OFFSET 0 0 0
	 CHANNELS 3 XPosition YPosition Z Position
	 EndSite
	 {
	 OFFSET 0 -1 0
	 }
}
ROOT li
{
	 OFFSET 0 0 0
	 CHANNELS 3 XPosition YPosition Z Position
	 EndSite
	 {
	 OFFSET 0 -1 0
	 }
}
ROOT ul
{
	 OFFSET 0 0 0
	 CHANNELS 3 XPosition YPosition Z Position
	 EndSite
	 {
	 OFFSET 0 -1 0
	 }
}
ROOT ll
{
	 OFFSET 0 0 0
	 CHANNELS 3 XPosition YPosition Z Position
	 EndSite
	 {
	 OFFSET 0 -1 0
	 }
}
ROOT tt
{
	 OFFSET 0 0 0
	 CHANNELS 3 XPosition YPosition Z Position
	 EndSite
	 {
	 OFFSET 0 -1 0
	 }
}
ROOT tb
{
	 OFFSET 0 0 0
	 CHANNELS 3 XPosition YPosition Z Position
	 EndSite
	 {
	 OFFSET 0 -1 0
	 }
}
ROOT td
{
	 OFFSET 0 0 0
	 CHANNELS 3 XPosition YPosition Z Position
	 EndSite
	 {
	 OFFSET 0 -1 0
	 }
}
ROOT v
{
	 OFFSET 0 0 0
	 CHANNELS 3 XPosition YPosition Z Position
	 EndSite
	 {
	 OFFSET 0 -1 0
	 }
}
ROOT bn
{
	 OFFSET 0 0 0
	 CHANNELS 3 XPosition YPosition Z Position
	 EndSite
	 {
	 OFFSET 0 -1 0
	 }
}
MOTION
Frames: 16
Frame Time: 0.002
-8.858889937400818E-4	-8.092849850654603E-4	0		0.51113623046875	-2.402246826171875	0		-1.16870654296875	0.020042377471923827	0		-0.7236276245117188	-2.5660126953125	0		1.3025816650390625	-0.744710693359375	0		3.1975390625	-0.014863223075866698	0		4.7717783203125	-0.06736914825439454	0		5.5333388671875	0.14653465270996094	0		-0.11123805236816406	5.95288623046875	0		
-0.0038491179943084715	-0.0036462509632110597	0		0.4602872009277344	-2.3958623046875	0		-1.1686158447265624	0.019686691284179686	0		-0.7584579467773438	-2.562443359375	0		1.302970458984375	-0.7441026000976563	0		3.21749267578125	-0.020932441711425782	0		4.76673681640625	-0.07330208587646485	0		5.5334599609375	0.1503760986328125	0		-0.11248208618164063	5.951921875	0		
-6.97820007801056E-4	-6.184710264205932E-4	0		0.48926095581054685	-2.397169677734375	0		-1.160392333984375	0.026168140411376953	0		-0.7533131713867187	-2.55872314453125	0		1.3064237060546875	-0.7395780029296875	0		3.225977294921875	-7.854909896850586E-4	0		4.78095263671875	-0.06668605804443359	0		5.53652734375	0.1660772705078125	0		-0.2659734191894531	5.9380703125	0		
-6.184809803962707E-4	-5.365189909934998E-4	0		0.4673836975097656	-2.388446533203125	0		-1.1562430419921874	0.029744014739990235	0		-0.750257080078125	-2.556957275390625	0		1.306773681640625	-0.739017333984375	0		3.230733154296875	-0.01561931610107422	0		4.78105615234375	-0.06485295867919921	0		5.5366279296875	0.16966729736328126	0		-0.28328741455078127	5.92735888671875	0		
-5.491999983787537E-4	-4.638870060443878E-4	0		0.5170785522460938	-2.39917822265625	0		-1.1643409423828126	0.02157336616516113	0		-0.753374267578125	-2.561066162109375	0		1.3071004638671875	-0.738488525390625	0		3.250080810546875	-7.98101007938385E-4	0		4.78702734375	-0.06922965240478515	0		5.536748046875	0.17653730773925783	0		-0.2511741638183594	5.932658203125	0		
-4.89874005317688E-4	-4.005720019340515E-4	0		0.49197235107421877	-2.3964384765625	0		-1.1683465576171874	0.018331485748291014	0		-0.7185746459960938	-2.566911376953125	0		1.345279052734375	-0.7447325439453125	0		3.197955322265625	-0.0086494140625	0		4.777111328125	-0.06739364624023438	0		5.54096923828125	0.16225181579589842	0		-0.12164768981933594	5.9530849609375	0		
-0.0034971230030059813	-0.003288400888442993	0		0.4907254333496094	-2.398193115234375	0		-1.1683026123046876	0.0180242862701416	0		-0.753666748046875	-2.563390380859375	0		1.304604736328125	-0.74147705078125	0		3.213004638671875	-0.007892858982086182	0		4.77718115234375	-0.06586117553710938	0		5.536873046875	0.17929847717285155	0		-0.2548566589355469	5.93261474609375	0		
-3.9962199330329895E-4	-3.0094099044799806E-4	0		0.4784422912597656	-2.39876025390625	0		-1.1601365966796875	0.024580165863037108	0		-0.7379825439453125	-2.568844482421875	0		1.31968701171875	-0.7503358154296875	0		3.235835693359375	-0.018350826263427735	0		4.776203125	-0.06641607666015625	0		5.536935546875	0.18209776306152345	0		-0.24136317443847657	5.9413017578125	0		
0.006761750221252441	0.00660516881942749	0		0.5003017578125	-2.388986328125	0		-1.1560372314453125	0.02823081588745117	0		-0.7440166625976562	-2.55587744140625	0		1.319162841796875	-0.7369271240234375	0		3.235263427734375	0.0035715930461883544	0		4.7913994140625	-0.057374835968017575	0		5.54410791015625	0.1826425323486328	0		-0.24389060974121093	5.94329248046875	0		
-3.4222599864006044E-4	-2.334129959344864E-4	0		0.4968507995605469	-2.392757080078125	0		-1.0891773681640624	0.01874437141418457	0		-0.714523193359375	-2.5655634765625	0		1.3462572021484376	-0.7430616455078125	0		3.207072021484375	-0.007074314117431641	0		4.77733056640625	-0.06188980484008789	0		5.54121044921875	0.17307032775878906	0		-0.12716859436035155	5.9520947265625	0		
-0.0033782880306243894	-0.003155916929244995	0		0.4933346252441406	-2.39754541015625	0		-1.168205322265625	0.01694540786743164	0		-0.7508850708007813	-2.56403662109375	0		1.3054906005859375	-0.7399837646484375	0		3.22810595703125	-0.00568686580657959	0		4.7842529296875	-0.06688274383544922	0		5.53413232421875	0.17734303283691405	0		-0.12853396606445314	5.952087890625	0		
-3.1376901268959046E-4	-1.9558599591255188E-4	0		0.46792160034179686	-2.393958740234375	0		-1.1681982421875	0.01670798683166504	0		-0.7143793334960937	-2.56782763671875	0		1.3056612548828126	-0.7396862182617188	0		3.226974853515625	-0.012954304695129395	0		4.77738623046875	-0.05970849609375	0		5.53416552734375	0.1794042510986328	0		-0.12981060791015625	5.9520751953125	0		
-0.0033624389171600343	-0.003134229898452759	0		0.4704419555664062	-2.391892333984375	0		-1.24011572265625	0.021754390716552736	0		-0.7827067260742188	-2.55874365234375	0		1.3206522216796874	-0.7486798095703125	0		3.22635302734375	0.00871683120727539	0		4.7815078125	-0.05281173706054688	0		5.5371328125	0.19329541015625	0		-0.2491796875	5.943146484375	0		
0.00375760293006897	0.0037425100803375245	0		0.4988817138671875	-2.3922939453125	0		-1.1560120849609374	0.027052288055419923	0		-0.7432200317382812	-2.558571533203125	0		1.309019287109375	-0.735224365234375	0		3.216070556640625	-0.006502891063690185	0		4.781515625	-0.05191895294189453	0		5.53715234375	0.19505328369140626	0		-0.25029014587402343	5.94310107421875	0		
-3.1881999969482423E-4	-1.9212600588798523E-4	0		0.48839340209960935	-2.386023193359375	0		-1.160092529296875	0.022917413711547853	0		-0.74685400390625	-2.56263525390625	0		1.30913916015625	-0.7350036010742188	0		3.25030224609375	0.0074556140899658205	0		4.7774140625	-0.05702838516235351	0		5.5342265625	0.1846817626953125	0		-0.13315031433105468	5.95200537109375	0		
-3.2999700307846067E-4	-2.0314300060272217E-4	0		0.49557290649414065	-2.39707470703125	0		-1.1682264404296876	0.015859785079956053	0		-0.7484904174804687	-2.564730712890625	0		1.3061768798828124	-0.7387535400390625	0		3.2022109375	0.003788489103317261	0		4.78741015625	-0.05644882583618164	0		5.5413564453125	0.18413717651367187	0		-0.1350939025878906	5.95298974609375	0		
